<?xml version="1.0" encoding="utf-8"?>
<!-- Generator: Adobe Illustrator 26.0.1, SVG Export Plug-In . SVG Version: 6.00 Build 0)  -->
<svg version="1.1" id="Layer_1" xmlns="http://www.w3.org/2000/svg" xmlns:xlink="http://www.w3.org/1999/xlink" x="0px" y="0px"
	 viewBox="0 0 1000 1000" style="enable-background:new 0 0 1000 1000;" xml:space="preserve">
<style type="text/css">
	.st0{fill:url(#SVGID_1_);}
	.st1{fill:#FFFFFF;}
	.st2{fill:url(#SVGID_00000055673656608582088990000016405659502772641172_);}
	.st3{fill:url(#SVGID_00000064333098314462416840000005182502550952515755_);}
	.st4{fill:url(#SVGID_00000096758459214518748150000016026640779221483185_);}
	.st5{fill:url(#SVGID_00000083073626863522311960000005864118911367518889_);}
	.st6{fill:url(#SVGID_00000172426355408194846150000002008440909405816233_);}
	.st7{fill:url(#SVGID_00000095339717589155589420000007404104124799617959_);}
	.st8{fill:url(#SVGID_00000178892257353647931740000016202875542910155914_);}
	.st9{fill:url(#SVGID_00000045595955509420241240000001541774995248968352_);}
	.st10{fill:url(#SVGID_00000048479839730387987100000006692091974798563998_);}
	.st11{fill:url(#SVGID_00000001643723943107700480000013404684918643283636_);}
	.st12{fill:url(#SVGID_00000041254232793534557500000017084289253791584132_);}
	.st13{fill:url(#SVGID_00000137098980319933342620000002324086868407279496_);}
	.st14{fill:url(#SVGID_00000176741941410680185830000016980298118342736264_);}
	.st15{fill:url(#SVGID_00000000910705175083399050000011746815419819969676_);}
	.st16{fill:url(#SVGID_00000049939057420320962270000000808849746605495223_);}
	.st17{fill:url(#SVGID_00000016757233858336629390000006022575550493829279_);}
	.st18{fill:url(#SVGID_00000126307199185609739160000015764791798322421152_);}
	.st19{fill:url(#SVGID_00000016050616284946122510000015768994412519272355_);}
	.st20{fill:url(#SVGID_00000124160088368238397700000006763457190192998037_);}
	.st21{fill:url(#SVGID_00000035514812900752986620000014325783326826529924_);}
	.st22{font-family:'Roboto-Bold';}
	.st23{font-size:151.317px;}
	.st24{fill:url(#SVGID_00000078762754567729093650000009902943010449901466_);}
	.st25{fill:url(#SVGID_00000045616462941797632100000006889942004825873053_);}
	.st26{fill:url(#SVGID_00000116937964762987374300000013374899648755369646_);}
	.st27{fill:url(#SVGID_00000114062996270909367880000009863366174464066739_);}
	.st28{fill:url(#SVGID_00000062870426947390206920000017751635522077690286_);}
	.st29{fill:url(#SVGID_00000139988784738487915130000014300918627111263926_);}
	.st30{fill:url(#SVGID_00000083795730852347920170000005330058520034099332_);}
	.st31{fill:url(#SVGID_00000101802884350706963330000010866150518660786853_);}
	.st32{fill:url(#SVGID_00000142880445116966412080000007577346554485672090_);}
	.st33{fill:url(#SVGID_00000011754125591427822430000004511563196957559187_);}
	.st34{fill:url(#SVGID_00000066481169592030555010000004832748274953206678_);}
	.st35{fill:url(#SVGID_00000005253888284064833530000005635654112346101666_);}
	.st36{fill:url(#SVGID_00000095321456749136597820000002191667044617096068_);}
	.st37{fill:url(#SVGID_00000068640888170716287240000005806968499895782530_);}
	.st38{fill:url(#SVGID_00000070816171155165535510000009823599003474405012_);}
	.st39{fill:url(#SVGID_00000042732645863060610900000005979367071636974211_);}
	.st40{fill:url(#SVGID_00000105426277383385211260000001882283585573647249_);}
	.st41{fill:url(#SVGID_00000025435728701079697940000007022351116872682913_);}
	.st42{fill:url(#SVGID_00000119796600049540238370000003518319272402071685_);}
	.st43{fill:url(#SVGID_00000023983238624628107120000014636459878877744305_);}
</style>
<linearGradient id="SVGID_1_" gradientUnits="userSpaceOnUse" x1="564.8846" y1="408.971" x2="518.3983" y2="408.4512">
	<stop  offset="0" style="stop-color:#AEECFF"/>
	<stop  offset="1" style="stop-color:#0037FF"/>
</linearGradient>
<rect x="525.83" y="393.21" class="st0" width="46.22" height="31.16"/>
<linearGradient id="SVGID_00000168106018619347508240000016578238011959251131_" gradientUnits="userSpaceOnUse" x1="572.897" y1="400.4054" x2="352.4804" y2="397.9407">
	<stop  offset="0" style="stop-color:#AEECFF"/>
	<stop  offset="1" style="stop-color:#0037FF"/>
</linearGradient>
<polygon style="fill:url(#SVGID_00000168106018619347508240000016578238011959251131_);" points="572.05,323.97 572.05,476.3 
	525.83,476.3 525.83,424.37 352.73,424.37 352.73,375.9 525.83,375.9 525.83,323.97 "/>
<linearGradient id="SVGID_00000085225785333552857390000011588715862668360595_" gradientUnits="userSpaceOnUse" x1="555.0201" y1="280.86" x2="445.2193" y2="279.6323">
	<stop  offset="0" style="stop-color:#AEECFF"/>
	<stop  offset="1" style="stop-color:#0037FF"/>
</linearGradient>
<path style="fill:url(#SVGID_00000085225785333552857390000011588715862668360595_);" d="M572.05,280.78v26.85h-46.24
	c-0.05-2.09-0.03-5.35-0.02-7.25c-1.06,21.62-27.68-42.39-54.27-45.56c-0.36-0.03-0.73-0.07-1.09-0.09
	c-2.65-0.14-5.25-0.1-7.79,0.12c7.6-1.23,15.41-1.85,23.37-1.85c13.8,0,27.14,1.9,39.81,5.47
	C542.66,263.18,558.25,270.81,572.05,280.78z"/>
<linearGradient id="SVGID_00000015349731569377961290000006435539008808299155_" gradientUnits="userSpaceOnUse" x1="537.1479" y1="472.1537" x2="357.2624" y2="470.1422">
	<stop  offset="0" style="stop-color:#AEECFF"/>
	<stop  offset="1" style="stop-color:#0037FF"/>
</linearGradient>
<path style="fill:url(#SVGID_00000015349731569377961290000006435539008808299155_);" d="M565.31,491.88
	c-7.17,17.62-19.84,32.77-36.75,42.58c-0.9,0.52-1.82,1.02-2.74,1.52c-12.71,6.82-27.16,10.85-42.5,11.25h-0.05
	c-7.95-0.14-15.74-0.92-23.32-2.27c-0.02,0-0.03,0-0.05-0.02c-42.53-9.52-74.3-47.48-74.3-92.89c0-10.59,0.07-19.56,1.4-27.7
	c1.71-10.65,5.57-19.87,14.18-29.43l1.73,3.46l2.56,3.74l15.23,22.23l26.88,39.24c12.13,17.69,32.18,28.27,53.63,28.27H565.31z"/>
<linearGradient id="SVGID_00000018926450232608411320000000699521758653420946_" gradientUnits="userSpaceOnUse" x1="364.8072" y1="399.8022" x2="504.63" y2="399.8022">
	<stop  offset="0" style="stop-color:#AEECFF"/>
	<stop  offset="1" style="stop-color:#0037FF"/>
</linearGradient>
<path style="fill:url(#SVGID_00000018926450232608411320000000699521758653420946_);" d="M525.83,298.94v8.69h-26.46
	c-19.87,0-38.51,9.58-50.08,25.74l-13.82,19.3l-0.48,0.68c0,0-6.23,9.36-14.26,22.56c-4.76,7.81-10.14,16.93-15.23,26.24
	c-4.1,7.5-8.03,15.09-11.27,22.23c-5.12,11.18-8.6,21.21-8.6,27.7c0,45.4,31.76,83.37,74.3,92.89
	c-68.81-12.31-121.03-72.46-121.03-144.82c0-69.45,48.14-127.68,112.86-143.1c3.58-0.87,7.22-1.59,10.91-2.18
	c2.54-0.23,5.14-0.26,7.79-0.12c0.36,0.02,0.73,0.05,1.09,0.09C498.55,256.7,520.95,273.7,525.83,298.94z"/>
<text transform="matrix(1 0 0 1 69.4092 721.9922)" class="st1 st22 st23">Chip Heaven</text>
</svg>
